<mxfile host="app.diagrams.net" modified="2023-02-23T11:27:52.383Z" agent="5.0 (Windows NT 10.0; Win64; x64) AppleWebKit/537.36 (KHTML, like Gecko) Chrome/110.0.0.0 Safari/537.36" etag="sQ9SNDAP-F9cL85p3z3q" version="20.8.22" type="github">
  <diagram id="C5RBs43oDa-KdzZeNtuy" name="Page-1">
    <mxGraphModel dx="6462" dy="773" grid="1" gridSize="10" guides="1" tooltips="1" connect="1" arrows="1" fold="1" page="1" pageScale="1" pageWidth="827" pageHeight="1169" math="0" shadow="0">
      <root>
        <mxCell id="WIyWlLk6GJQsqaUBKTNV-0" />
        <mxCell id="WIyWlLk6GJQsqaUBKTNV-1" parent="WIyWlLk6GJQsqaUBKTNV-0" />
        <mxCell id="WIyWlLk6GJQsqaUBKTNV-2" value="" style="rounded=0;html=1;jettySize=auto;orthogonalLoop=1;fontSize=11;endArrow=block;endFill=0;endSize=8;strokeWidth=1;shadow=0;labelBackgroundColor=none;edgeStyle=orthogonalEdgeStyle;" parent="WIyWlLk6GJQsqaUBKTNV-1" source="WIyWlLk6GJQsqaUBKTNV-3" edge="1">
          <mxGeometry relative="1" as="geometry">
            <mxPoint x="220" y="170" as="targetPoint" />
          </mxGeometry>
        </mxCell>
        <mxCell id="WIyWlLk6GJQsqaUBKTNV-3" value="เริ่มต้น" style="rounded=1;whiteSpace=wrap;html=1;fontSize=12;glass=0;strokeWidth=1;shadow=0;" parent="WIyWlLk6GJQsqaUBKTNV-1" vertex="1">
          <mxGeometry x="160" y="80" width="120" height="40" as="geometry" />
        </mxCell>
        <mxCell id="WIyWlLk6GJQsqaUBKTNV-11" value="จบการทำงาน" style="rounded=1;whiteSpace=wrap;html=1;fontSize=12;glass=0;strokeWidth=1;shadow=0;" parent="WIyWlLk6GJQsqaUBKTNV-1" vertex="1">
          <mxGeometry x="160" y="1070" width="120" height="40" as="geometry" />
        </mxCell>
        <mxCell id="ESY7_y4H-JP2yqJvy8Xb-3" style="edgeStyle=orthogonalEdgeStyle;rounded=0;orthogonalLoop=1;jettySize=auto;html=1;entryX=0.5;entryY=0;entryDx=0;entryDy=0;" edge="1" parent="WIyWlLk6GJQsqaUBKTNV-1" source="ESY7_y4H-JP2yqJvy8Xb-0" target="ESY7_y4H-JP2yqJvy8Xb-1">
          <mxGeometry relative="1" as="geometry" />
        </mxCell>
        <mxCell id="ESY7_y4H-JP2yqJvy8Xb-0" value="กำหนดตัว พอร์ด B ที้งหมดให้เชื่อมต่อเข้าตัวทุกบิต" style="rounded=0;whiteSpace=wrap;html=1;" vertex="1" parent="WIyWlLk6GJQsqaUBKTNV-1">
          <mxGeometry x="140" y="170" width="160" height="60" as="geometry" />
        </mxCell>
        <mxCell id="ESY7_y4H-JP2yqJvy8Xb-6" value="" style="edgeStyle=orthogonalEdgeStyle;rounded=0;orthogonalLoop=1;jettySize=auto;html=1;" edge="1" parent="WIyWlLk6GJQsqaUBKTNV-1" source="ESY7_y4H-JP2yqJvy8Xb-1" target="ESY7_y4H-JP2yqJvy8Xb-5">
          <mxGeometry relative="1" as="geometry" />
        </mxCell>
        <mxCell id="ESY7_y4H-JP2yqJvy8Xb-1" value="กำหนดตัว พอร์ด D ที้งหมดให้เชื่อมต่อเข้าตัวบิตทุกตัว" style="rounded=0;whiteSpace=wrap;html=1;" vertex="1" parent="WIyWlLk6GJQsqaUBKTNV-1">
          <mxGeometry x="140" y="270" width="160" height="60" as="geometry" />
        </mxCell>
        <mxCell id="ESY7_y4H-JP2yqJvy8Xb-27" value="" style="edgeStyle=orthogonalEdgeStyle;rounded=0;orthogonalLoop=1;jettySize=auto;html=1;" edge="1" parent="WIyWlLk6GJQsqaUBKTNV-1" source="ESY7_y4H-JP2yqJvy8Xb-5" target="ESY7_y4H-JP2yqJvy8Xb-14">
          <mxGeometry relative="1" as="geometry" />
        </mxCell>
        <mxCell id="ESY7_y4H-JP2yqJvy8Xb-5" value="อ่านตัวสวิดซ์ 1 เก็บค่าตัวไว้ในตัว switch 1&amp;nbsp;" style="rounded=0;whiteSpace=wrap;html=1;" vertex="1" parent="WIyWlLk6GJQsqaUBKTNV-1">
          <mxGeometry x="140" y="361" width="160" height="60" as="geometry" />
        </mxCell>
        <mxCell id="ESY7_y4H-JP2yqJvy8Xb-28" value="" style="edgeStyle=orthogonalEdgeStyle;rounded=0;orthogonalLoop=1;jettySize=auto;html=1;" edge="1" parent="WIyWlLk6GJQsqaUBKTNV-1" source="ESY7_y4H-JP2yqJvy8Xb-14" target="ESY7_y4H-JP2yqJvy8Xb-16">
          <mxGeometry relative="1" as="geometry" />
        </mxCell>
        <mxCell id="ESY7_y4H-JP2yqJvy8Xb-14" value="กรองข้อมูล 4 บิตบนของ switch1 ทิ้งเพื่อรันข้อมูลจาก 4 บิตล่างอย่างเดียว" style="rounded=0;whiteSpace=wrap;html=1;" vertex="1" parent="WIyWlLk6GJQsqaUBKTNV-1">
          <mxGeometry x="140" y="460" width="160" height="60" as="geometry" />
        </mxCell>
        <mxCell id="ESY7_y4H-JP2yqJvy8Xb-30" value="" style="edgeStyle=orthogonalEdgeStyle;rounded=0;orthogonalLoop=1;jettySize=auto;html=1;" edge="1" parent="WIyWlLk6GJQsqaUBKTNV-1" source="ESY7_y4H-JP2yqJvy8Xb-16" target="ESY7_y4H-JP2yqJvy8Xb-19">
          <mxGeometry relative="1" as="geometry" />
        </mxCell>
        <mxCell id="ESY7_y4H-JP2yqJvy8Xb-16" value="อ่านตัวสวิดซ์ 2 เก็บค่าตัวไว้ในตัว switch 2" style="rounded=0;whiteSpace=wrap;html=1;" vertex="1" parent="WIyWlLk6GJQsqaUBKTNV-1">
          <mxGeometry x="140" y="560" width="160" height="60" as="geometry" />
        </mxCell>
        <mxCell id="ESY7_y4H-JP2yqJvy8Xb-34" value="" style="edgeStyle=orthogonalEdgeStyle;rounded=0;orthogonalLoop=1;jettySize=auto;html=1;" edge="1" parent="WIyWlLk6GJQsqaUBKTNV-1" source="ESY7_y4H-JP2yqJvy8Xb-19" target="ESY7_y4H-JP2yqJvy8Xb-24">
          <mxGeometry relative="1" as="geometry" />
        </mxCell>
        <mxCell id="ESY7_y4H-JP2yqJvy8Xb-19" value="กรองข้อมูล 4 บิตบนของ switch2 ทิ้งเพื่อรันข้อมูลจาก 4 บิตล่างอย่างเดียว" style="rounded=0;whiteSpace=wrap;html=1;" vertex="1" parent="WIyWlLk6GJQsqaUBKTNV-1">
          <mxGeometry x="140" y="660" width="160" height="60" as="geometry" />
        </mxCell>
        <mxCell id="ESY7_y4H-JP2yqJvy8Xb-21" value="เลื้อนบิตในตัวแปร หไระแเ" style="rounded=0;whiteSpace=wrap;html=1;" vertex="1" parent="WIyWlLk6GJQsqaUBKTNV-1">
          <mxGeometry x="-4280" y="780" width="120" height="60" as="geometry" />
        </mxCell>
        <mxCell id="ESY7_y4H-JP2yqJvy8Xb-35" value="" style="edgeStyle=orthogonalEdgeStyle;rounded=0;orthogonalLoop=1;jettySize=auto;html=1;" edge="1" parent="WIyWlLk6GJQsqaUBKTNV-1" source="ESY7_y4H-JP2yqJvy8Xb-24" target="ESY7_y4H-JP2yqJvy8Xb-25">
          <mxGeometry relative="1" as="geometry" />
        </mxCell>
        <mxCell id="ESY7_y4H-JP2yqJvy8Xb-24" value="เลือกบิตในตัวแปร switch 2 ขวา 4 บิต" style="rounded=0;whiteSpace=wrap;html=1;" vertex="1" parent="WIyWlLk6GJQsqaUBKTNV-1">
          <mxGeometry x="160" y="760" width="120" height="60" as="geometry" />
        </mxCell>
        <mxCell id="ESY7_y4H-JP2yqJvy8Xb-36" value="" style="edgeStyle=orthogonalEdgeStyle;rounded=0;orthogonalLoop=1;jettySize=auto;html=1;" edge="1" parent="WIyWlLk6GJQsqaUBKTNV-1" source="ESY7_y4H-JP2yqJvy8Xb-25" target="ESY7_y4H-JP2yqJvy8Xb-26">
          <mxGeometry relative="1" as="geometry" />
        </mxCell>
        <mxCell id="ESY7_y4H-JP2yqJvy8Xb-25" value="switch 1 multilpy switch 2 =&amp;gt; R1:R0" style="rounded=0;whiteSpace=wrap;html=1;" vertex="1" parent="WIyWlLk6GJQsqaUBKTNV-1">
          <mxGeometry x="160" y="870" width="120" height="60" as="geometry" />
        </mxCell>
        <mxCell id="ESY7_y4H-JP2yqJvy8Xb-37" value="" style="edgeStyle=orthogonalEdgeStyle;rounded=0;orthogonalLoop=1;jettySize=auto;html=1;" edge="1" parent="WIyWlLk6GJQsqaUBKTNV-1" source="ESY7_y4H-JP2yqJvy8Xb-26" target="WIyWlLk6GJQsqaUBKTNV-11">
          <mxGeometry relative="1" as="geometry" />
        </mxCell>
        <mxCell id="ESY7_y4H-JP2yqJvy8Xb-38" style="edgeStyle=orthogonalEdgeStyle;rounded=0;orthogonalLoop=1;jettySize=auto;html=1;entryX=0;entryY=0.5;entryDx=0;entryDy=0;" edge="1" parent="WIyWlLk6GJQsqaUBKTNV-1" source="ESY7_y4H-JP2yqJvy8Xb-26" target="ESY7_y4H-JP2yqJvy8Xb-5">
          <mxGeometry relative="1" as="geometry">
            <mxPoint y="400" as="targetPoint" />
            <Array as="points">
              <mxPoint x="10" y="980" />
              <mxPoint x="10" y="391" />
            </Array>
          </mxGeometry>
        </mxCell>
        <mxCell id="ESY7_y4H-JP2yqJvy8Xb-26" value="แสดงผลของ ค่า R0 ที่ PORT B" style="rounded=0;whiteSpace=wrap;html=1;" vertex="1" parent="WIyWlLk6GJQsqaUBKTNV-1">
          <mxGeometry x="160" y="950" width="120" height="60" as="geometry" />
        </mxCell>
      </root>
    </mxGraphModel>
  </diagram>
</mxfile>
